<svg width="100" height="99" viewBox="0 0 100 99" fill="none" xmlns="http://www.w3.org/2000/svg">
<ellipse cx="50" cy="49.5" rx="49.9024" ry="49.5" fill="#EAEAEA"/>
<path d="M39.394 38.8892C40.0597 45.7257 44.5174 50.2408 50.8384 50.2408C57.1591 50.2408 61.6163 45.7255 62.2823 38.8892L63.226 31.503C63.8114 24.2463 57.8416 19 50.8384 19C43.8349 19 37.8652 24.2463 38.4502 31.503L39.394 38.8892Z" fill="#5E5E5E"/>
<path d="M75.3183 68.5198L74.8666 65.6663C74.4882 63.2737 72.9722 61.2083 70.7937 60.1162L61.2866 55.3475C60.989 55.1982 60.7467 54.9732 60.5436 54.7219C57.7913 57.6085 54.4476 59.3063 50.8384 59.3063C47.2293 59.3063 43.8851 57.6085 41.1329 54.7219C40.9298 54.9732 40.6875 55.1982 40.3899 55.3475L30.8829 60.1162C28.7042 61.2083 27.1885 63.2737 26.8101 65.6663L26.3581 68.5198C26.197 69.5384 26.4096 71.0333 27.3294 71.7806C28.5592 72.7782 33.1023 79 50.8384 79C68.5742 79 73.117 72.7782 74.3469 71.7806C75.267 71.0333 75.4794 69.5384 75.3183 68.5198Z" fill="#5E5E5E"/>
</svg>
