<svg width="323" height="42" viewBox="0 0 323 42" fill="none" xmlns="http://www.w3.org/2000/svg">
<rect x="21" width="239" height="42" fill="#0057A2"/>
<circle cx="21" cy="21" r="21" fill="#D9D9D9"/>
<rect x="21" width="302" height="42" fill="#0057A2"/>
<circle cx="21" cy="21" r="21" fill="#F0FF19"/>
<circle cx="21" cy="21" r="18" fill="#0057A1"/>
<path d="M15.7 27V25.26L21.26 19.98C21.7267 19.54 22.0733 19.1533 22.3 18.82C22.5267 18.4867 22.6733 18.18 22.74 17.9C22.82 17.6067 22.86 17.3333 22.86 17.08C22.86 16.44 22.64 15.9467 22.2 15.6C21.76 15.24 21.1133 15.06 20.26 15.06C19.58 15.06 18.96 15.18 18.4 15.42C17.8533 15.66 17.38 16.0267 16.98 16.52L15.16 15.12C15.7067 14.3867 16.44 13.82 17.36 13.42C18.2933 13.0067 19.3333 12.8 20.48 12.8C21.4933 12.8 22.3733 12.9667 23.12 13.3C23.88 13.62 24.46 14.08 24.86 14.68C25.2733 15.28 25.48 15.9933 25.48 16.82C25.48 17.2733 25.42 17.7267 25.3 18.18C25.18 18.62 24.9533 19.0867 24.62 19.58C24.2867 20.0733 23.8 20.6267 23.16 21.24L18.38 25.78L17.84 24.8H26.02V27H15.7Z" fill="#F0FF1A"/>
<path d="M62.78 24.03L62.654 21.258L69.26 14.4H71.888L66.398 20.232L65.102 21.654L62.78 24.03ZM60.692 27V14.4H63.032V27H60.692ZM69.476 27L64.652 21.258L66.2 19.548L72.212 27H69.476ZM73.8053 27V14.4H76.1453V27H73.8053ZM81.7133 19.638H87.9773V21.564H81.7133V19.638ZM81.8933 25.038H89.0033V27H79.5533V14.4H88.7513V16.362H81.8933V25.038ZM80.7413 13.374L83.1713 11.448H85.1873L87.6173 13.374H85.7453L83.3333 11.844H85.0253L82.6133 13.374H80.7413ZM87.0773 12.06L86.5013 11.448C86.7413 11.328 86.9153 11.202 87.0233 11.07C87.1433 10.926 87.2033 10.788 87.2033 10.656C87.2033 10.488 87.1433 10.356 87.0233 10.26C86.9033 10.152 86.7473 10.098 86.5553 10.098C86.3033 10.098 86.0393 10.17 85.7633 10.314L85.3673 9.558C85.5593 9.426 85.7753 9.33 86.0153 9.27C86.2673 9.21 86.5133 9.18 86.7533 9.18C87.2213 9.18 87.5873 9.306 87.8513 9.558C88.1273 9.81 88.2653 10.134 88.2653 10.53C88.2653 10.878 88.1573 11.19 87.9413 11.466C87.7253 11.73 87.4373 11.928 87.0773 12.06ZM91.6119 27V14.4H93.5379L99.0459 23.598H98.0379L103.456 14.4H105.382L105.4 27H103.186L103.168 17.874H103.636L99.0279 25.56H97.9839L93.3039 17.874H93.8439V27H91.6119ZM116.334 27V16.38H112.158V14.4H122.85V16.38H118.674V27H116.334ZM124.606 27V14.4H129.79C130.906 14.4 131.86 14.58 132.652 14.94C133.456 15.3 134.074 15.816 134.506 16.488C134.938 17.16 135.154 17.958 135.154 18.882C135.154 19.806 134.938 20.604 134.506 21.276C134.074 21.936 133.456 22.446 132.652 22.806C131.86 23.154 130.906 23.328 129.79 23.328H125.902L126.946 22.266V27H124.606ZM132.85 27L129.664 22.428H132.166L135.37 27H132.85ZM126.946 22.518L125.902 21.402H129.682C130.714 21.402 131.488 21.18 132.004 20.736C132.532 20.292 132.796 19.674 132.796 18.882C132.796 18.078 132.532 17.46 132.004 17.028C131.488 16.596 130.714 16.38 129.682 16.38H125.902L126.946 15.228V22.518ZM135.99 27L141.66 14.4H143.964L149.652 27H147.204L142.326 15.642H143.262L138.402 27H135.99ZM138.6 24.084L139.23 22.248H146.034L146.664 24.084H138.6ZM158.785 27V16.38H154.609V14.4H165.301V16.38H161.125V27H158.785ZM164.642 27L170.312 14.4H172.616L178.304 27H175.856L170.978 15.642H171.914L167.054 27H164.642ZM167.252 24.084L167.882 22.248H174.686L175.316 24.084H167.252ZM179.907 27V14.4H182.247V27H179.907ZM190.63 27V14.4H192.556L200.458 24.102H199.504V14.4H201.826V27H199.9L191.998 17.298H192.952V27H190.63ZM211.088 27.18C210.104 27.18 209.198 27.024 208.37 26.712C207.554 26.388 206.84 25.938 206.228 25.362C205.616 24.774 205.142 24.084 204.806 23.292C204.47 22.5 204.302 21.636 204.302 20.7C204.302 19.764 204.47 18.9 204.806 18.108C205.142 17.316 205.616 16.632 206.228 16.056C206.852 15.468 207.578 15.018 208.406 14.706C209.234 14.382 210.14 14.22 211.124 14.22C212.192 14.22 213.152 14.394 214.004 14.742C214.868 15.09 215.594 15.6 216.182 16.272L214.706 17.712C214.214 17.22 213.68 16.86 213.104 16.632C212.54 16.392 211.916 16.272 211.232 16.272C210.572 16.272 209.96 16.38 209.396 16.596C208.832 16.812 208.346 17.118 207.938 17.514C207.53 17.91 207.212 18.378 206.984 18.918C206.768 19.458 206.66 20.052 206.66 20.7C206.66 21.336 206.768 21.924 206.984 22.464C207.212 23.004 207.53 23.478 207.938 23.886C208.346 24.282 208.826 24.588 209.378 24.804C209.93 25.02 210.542 25.128 211.214 25.128C211.838 25.128 212.438 25.032 213.014 24.84C213.602 24.636 214.16 24.3 214.688 23.832L216.02 25.578C215.36 26.106 214.592 26.508 213.716 26.784C212.852 27.048 211.976 27.18 211.088 27.18ZM213.806 25.272V20.556H216.02V25.578L213.806 25.272ZM227.962 14.4H230.302V27H227.962V14.4ZM221.446 27H219.106V14.4H221.446V27ZM228.142 21.6H221.248V19.602H228.142V21.6ZM235.838 19.638H242.102V21.564H235.838V19.638ZM236.018 25.038H243.128V27H233.678V14.4H242.876V16.362H236.018V25.038Z" fill="#F0FF19"/>
</svg>
