<svg width="323" height="42" viewBox="0 0 323 42" fill="none" xmlns="http://www.w3.org/2000/svg">
<rect x="21" width="239" height="42" fill="#0057A2"/>
<circle cx="21" cy="21" r="21" fill="#D9D9D9"/>
<rect x="21" width="302" height="42" fill="#0057A2"/>
<circle cx="21" cy="21" r="21" fill="#FFC1C1"/>
<circle cx="21" cy="21" r="18" fill="#0057A1"/>
<path d="M20.28 27.2C19.2933 27.2 18.3267 27.06 17.38 26.78C16.4467 26.4867 15.66 26.0867 15.02 25.58L16.14 23.56C16.6467 23.9733 17.26 24.3067 17.98 24.56C18.7 24.8133 19.4533 24.94 20.24 24.94C21.1733 24.94 21.9 24.7533 22.42 24.38C22.94 23.9933 23.2 23.4733 23.2 22.82C23.2 22.18 22.96 21.6733 22.48 21.3C22 20.9267 21.2267 20.74 20.16 20.74H18.88V18.96L22.88 14.2L23.22 15.18H15.7V13H25.24V14.74L21.24 19.5L19.88 18.7H20.66C22.38 18.7 23.6667 19.0867 24.52 19.86C25.3867 20.62 25.82 21.6 25.82 22.8C25.82 23.5867 25.62 24.3133 25.22 24.98C24.82 25.6467 24.2067 26.1867 23.38 26.6C22.5667 27 21.5333 27.2 20.28 27.2Z" fill="#FFC1C1"/>
<path d="M65.524 27.18C64.564 27.18 63.67 27.024 62.842 26.712C62.026 26.388 61.312 25.938 60.7 25.362C60.1 24.774 59.632 24.084 59.296 23.292C58.96 22.5 58.792 21.636 58.792 20.7C58.792 19.764 58.96 18.9 59.296 18.108C59.632 17.316 60.106 16.632 60.718 16.056C61.33 15.468 62.044 15.018 62.86 14.706C63.676 14.382 64.57 14.22 65.542 14.22C66.574 14.22 67.516 14.4 68.368 14.76C69.22 15.108 69.94 15.63 70.528 16.326L69.016 17.748C68.56 17.256 68.05 16.89 67.486 16.65C66.922 16.398 66.31 16.272 65.65 16.272C64.99 16.272 64.384 16.38 63.832 16.596C63.292 16.812 62.818 17.118 62.41 17.514C62.014 17.91 61.702 18.378 61.474 18.918C61.258 19.458 61.15 20.052 61.15 20.7C61.15 21.348 61.258 21.942 61.474 22.482C61.702 23.022 62.014 23.49 62.41 23.886C62.818 24.282 63.292 24.588 63.832 24.804C64.384 25.02 64.99 25.128 65.65 25.128C66.31 25.128 66.922 25.008 67.486 24.768C68.05 24.516 68.56 24.138 69.016 23.634L70.528 25.074C69.94 25.758 69.22 26.28 68.368 26.64C67.516 27 66.568 27.18 65.524 27.18ZM70.7245 27L76.3945 14.4H78.6985L84.3865 27H81.9385L77.0605 15.642H77.9965L73.1365 27H70.7245ZM73.3345 24.084L73.9645 22.248H80.7685L81.3985 24.084H73.3345ZM76.0345 13.374L78.4645 10.908H81.1105L77.9785 13.374H76.0345ZM91.6451 27.18C90.6851 27.18 89.7911 27.024 88.9631 26.712C88.1471 26.388 87.4331 25.938 86.8211 25.362C86.2211 24.774 85.7531 24.084 85.4171 23.292C85.0811 22.5 84.9131 21.636 84.9131 20.7C84.9131 19.764 85.0811 18.9 85.4171 18.108C85.7531 17.316 86.2271 16.632 86.8391 16.056C87.4511 15.468 88.1651 15.018 88.9811 14.706C89.7971 14.382 90.6911 14.22 91.6631 14.22C92.6951 14.22 93.6371 14.4 94.4891 14.76C95.3411 15.108 96.0611 15.63 96.6491 16.326L95.1371 17.748C94.6811 17.256 94.1711 16.89 93.6071 16.65C93.0431 16.398 92.4311 16.272 91.7711 16.272C91.1111 16.272 90.5051 16.38 89.9531 16.596C89.4131 16.812 88.9391 17.118 88.5311 17.514C88.1351 17.91 87.8231 18.378 87.5951 18.918C87.3791 19.458 87.2711 20.052 87.2711 20.7C87.2711 21.348 87.3791 21.942 87.5951 22.482C87.8231 23.022 88.1351 23.49 88.5311 23.886C88.9391 24.282 89.4131 24.588 89.9531 24.804C90.5051 25.02 91.1111 25.128 91.7711 25.128C92.4311 25.128 93.0431 25.008 93.6071 24.768C94.1711 24.516 94.6811 24.138 95.1371 23.634L96.6491 25.074C96.0611 25.758 95.3411 26.28 94.4891 26.64C93.6371 27 92.6891 27.18 91.6451 27.18ZM103.866 27V14.4H106.206V25.02H112.794V27H103.866ZM119.883 27.18C118.155 27.18 116.799 26.694 115.815 25.722C114.843 24.75 114.357 23.346 114.357 21.51V14.4H116.697V21.42C116.697 22.716 116.973 23.658 117.525 24.246C118.089 24.834 118.881 25.128 119.901 25.128C120.921 25.128 121.707 24.834 122.259 24.246C122.811 23.658 123.087 22.716 123.087 21.42V14.4H125.391V21.51C125.391 23.346 124.899 24.75 123.915 25.722C122.943 26.694 121.599 27.18 119.883 27.18ZM124.221 16.002V14.4H124.599C124.971 14.4 125.247 14.292 125.427 14.076C125.619 13.86 125.715 13.584 125.715 13.248C125.715 13.032 125.679 12.828 125.607 12.636C125.547 12.444 125.463 12.276 125.355 12.132L126.741 11.628C126.909 11.844 127.041 12.096 127.137 12.384C127.233 12.672 127.281 12.984 127.281 13.32C127.281 14.148 127.041 14.802 126.561 15.282C126.081 15.762 125.421 16.002 124.581 16.002H124.221ZM134.28 27.18C132.552 27.18 131.196 26.694 130.212 25.722C129.24 24.75 128.754 23.346 128.754 21.51V14.4H131.094V21.42C131.094 22.716 131.37 23.658 131.922 24.246C132.486 24.834 133.278 25.128 134.298 25.128C135.318 25.128 136.104 24.834 136.656 24.246C137.208 23.658 137.484 22.716 137.484 21.42V14.4H139.788V21.51C139.788 23.346 139.296 24.75 138.312 25.722C137.34 26.694 135.996 27.18 134.28 27.18ZM151.136 27V22.014L151.658 23.454L146.186 14.4H148.688L153.08 21.69H151.676L156.104 14.4H158.408L152.936 23.454L153.476 22.014V27H151.136ZM150.794 13.374L153.224 10.908H155.87L152.738 13.374H150.794Z" fill="#FFC1C1"/>
</svg>
