<svg width="323" height="42" viewBox="0 0 323 42" fill="none" xmlns="http://www.w3.org/2000/svg">
<rect x="21" width="239" height="42" fill="#0057A2"/>
<circle cx="21" cy="21" r="21" fill="#D9D9D9"/>
<rect x="21" width="302" height="42" fill="#0057A2"/>
<circle cx="21" cy="21" r="21" fill="#F1EEEE"/>
<circle cx="21" cy="21" r="18" fill="#0057A1"/>
<path d="M20.12 28V15L21.26 16.18H17.16V14H22.72V28H20.12Z" fill="white"/>
<path d="M59.692 27V14.4H65.596C67.108 14.4 68.26 14.7 69.052 15.3C69.844 15.888 70.24 16.68 70.24 17.676C70.24 18.348 70.084 18.924 69.772 19.404C69.46 19.872 69.04 20.238 68.512 20.502C67.996 20.754 67.432 20.88 66.82 20.88L67.144 20.232C67.852 20.232 68.488 20.364 69.052 20.628C69.616 20.88 70.06 21.252 70.384 21.744C70.72 22.236 70.888 22.848 70.888 23.58C70.888 24.66 70.474 25.5 69.646 26.1C68.818 26.7 67.588 27 65.956 27H59.692ZM62.032 25.164H65.812C66.688 25.164 67.36 25.02 67.828 24.732C68.296 24.444 68.53 23.982 68.53 23.346C68.53 22.722 68.296 22.266 67.828 21.978C67.36 21.678 66.688 21.528 65.812 21.528H61.852V19.71H65.344C66.16 19.71 66.784 19.566 67.216 19.278C67.66 18.99 67.882 18.558 67.882 17.982C67.882 17.394 67.66 16.956 67.216 16.668C66.784 16.38 66.16 16.236 65.344 16.236H62.032V25.164ZM71.6034 27L77.2734 14.4H79.5774L85.2654 27H82.8174L77.9394 15.642H78.8754L74.0154 27H71.6034ZM74.2134 24.084L74.8434 22.248H81.6474L82.2774 24.084H74.2134ZM77.9934 13.374L74.8614 10.908H77.5074L79.9374 13.374H77.9934ZM86.8678 27V14.4H89.2078V27H86.8678ZM100.146 27V16.38H95.9704V14.4H106.662V16.38H102.486V27H100.146ZM117.275 14.4H119.615V27H117.275V14.4ZM110.759 27H108.419V14.4H110.759V27ZM117.455 21.6H110.561V19.602H117.455V21.6ZM122.991 27V14.4H125.331V27H122.991ZM139.599 27.18C138.615 27.18 137.709 27.024 136.881 26.712C136.065 26.388 135.351 25.938 134.739 25.362C134.127 24.774 133.653 24.084 133.317 23.292C132.981 22.5 132.813 21.636 132.813 20.7C132.813 19.764 132.981 18.9 133.317 18.108C133.653 17.316 134.127 16.632 134.739 16.056C135.363 15.468 136.089 15.018 136.917 14.706C137.745 14.382 138.651 14.22 139.635 14.22C140.703 14.22 141.663 14.394 142.515 14.742C143.379 15.09 144.105 15.6 144.693 16.272L143.217 17.712C142.725 17.22 142.191 16.86 141.615 16.632C141.051 16.392 140.427 16.272 139.743 16.272C139.083 16.272 138.471 16.38 137.907 16.596C137.343 16.812 136.857 17.118 136.449 17.514C136.041 17.91 135.723 18.378 135.495 18.918C135.279 19.458 135.171 20.052 135.171 20.7C135.171 21.336 135.279 21.924 135.495 22.464C135.723 23.004 136.041 23.478 136.449 23.886C136.857 24.282 137.337 24.588 137.889 24.804C138.441 25.02 139.053 25.128 139.725 25.128C140.349 25.128 140.949 25.032 141.525 24.84C142.113 24.636 142.671 24.3 143.199 23.832L144.531 25.578C143.871 26.106 143.103 26.508 142.227 26.784C141.363 27.048 140.487 27.18 139.599 27.18ZM142.317 25.272V20.556H144.531V25.578L142.317 25.272ZM153.522 27.18C152.538 27.18 151.632 27.018 150.804 26.694C149.976 26.37 149.256 25.92 148.644 25.344C148.032 24.756 147.558 24.072 147.222 23.292C146.886 22.5 146.718 21.636 146.718 20.7C146.718 19.764 146.886 18.906 147.222 18.126C147.558 17.334 148.032 16.65 148.644 16.074C149.256 15.486 149.976 15.03 150.804 14.706C151.632 14.382 152.532 14.22 153.504 14.22C154.488 14.22 155.388 14.382 156.204 14.706C157.032 15.03 157.752 15.486 158.364 16.074C158.976 16.65 159.45 17.334 159.786 18.126C160.122 18.906 160.29 19.764 160.29 20.7C160.29 21.636 160.122 22.5 159.786 23.292C159.45 24.084 158.976 24.768 158.364 25.344C157.752 25.92 157.032 26.37 156.204 26.694C155.388 27.018 154.494 27.18 153.522 27.18ZM153.504 25.128C154.14 25.128 154.728 25.02 155.268 24.804C155.808 24.588 156.276 24.282 156.672 23.886C157.068 23.478 157.374 23.01 157.59 22.482C157.818 21.942 157.932 21.348 157.932 20.7C157.932 20.052 157.818 19.464 157.59 18.936C157.374 18.396 157.068 17.928 156.672 17.532C156.276 17.124 155.808 16.812 155.268 16.596C154.728 16.38 154.14 16.272 153.504 16.272C152.868 16.272 152.28 16.38 151.74 16.596C151.212 16.812 150.744 17.124 150.336 17.532C149.94 17.928 149.628 18.396 149.4 18.936C149.184 19.464 149.076 20.052 149.076 20.7C149.076 21.336 149.184 21.924 149.4 22.464C149.628 23.004 149.94 23.478 150.336 23.886C150.732 24.282 151.2 24.588 151.74 24.804C152.28 25.02 152.868 25.128 153.504 25.128ZM150.066 13.374L152.496 11.448H154.512L156.942 13.374H155.07L152.658 11.844H154.35L151.938 13.374H150.066ZM156.528 11.718L153.792 9.612H156.204L158.256 11.718H156.528ZM162.77 27V14.4H164.696L170.204 23.598H169.196L174.614 14.4H176.54L176.558 27H174.344L174.326 17.874H174.794L170.186 25.56H169.142L164.462 17.874H165.002V27H162.77ZM183.856 24.138V22.518L190.066 14.4H192.568L186.448 22.518L185.278 22.158H195.268V24.138H183.856ZM190.768 27V24.138L190.84 22.158V19.62H193.036V27H190.768ZM204.216 24.03L204.09 21.258L210.696 14.4H213.324L207.834 20.232L206.538 21.654L204.216 24.03ZM202.128 27V14.4H204.468V27H202.128ZM210.912 27L206.088 21.258L207.636 19.548L213.648 27H210.912ZM217.44 27V22.014L217.962 23.454L212.49 14.4H214.992L219.384 21.69H217.98L222.408 14.4H224.712L219.24 23.454L219.78 22.014V27H217.44ZM219.906 13.374C219.618 13.374 219.354 13.32 219.114 13.212C218.886 13.092 218.676 12.954 218.484 12.798C218.304 12.63 218.13 12.486 217.962 12.366C217.794 12.246 217.626 12.186 217.458 12.186C217.206 12.186 217.002 12.282 216.846 12.474C216.69 12.666 216.6 12.93 216.576 13.266H215.37C215.394 12.522 215.574 11.934 215.91 11.502C216.258 11.07 216.726 10.854 217.314 10.854C217.602 10.854 217.866 10.914 218.106 11.034C218.346 11.154 218.556 11.292 218.736 11.448C218.928 11.604 219.108 11.742 219.276 11.862C219.444 11.982 219.606 12.042 219.762 12.042C220.014 12.042 220.218 11.952 220.374 11.772C220.542 11.592 220.632 11.34 220.644 11.016H221.85C221.838 11.712 221.658 12.282 221.31 12.726C220.962 13.158 220.494 13.374 219.906 13.374ZM231.219 27V14.4H233.145L241.047 24.102H240.093V14.4H242.415V27H240.489L232.587 17.298H233.541V27H231.219ZM244.01 27L249.68 14.4H251.984L257.672 27H255.224L250.346 15.642H251.282L246.422 27H244.01ZM246.62 24.084L247.25 22.248H254.054L254.684 24.084H246.62ZM250.832 13.5C249.956 13.5 249.224 13.266 248.636 12.798C248.06 12.33 247.754 11.7 247.718 10.908H249.194C249.218 11.328 249.386 11.658 249.698 11.898C250.01 12.138 250.388 12.258 250.832 12.258C251.276 12.258 251.654 12.138 251.966 11.898C252.29 11.658 252.458 11.328 252.47 10.908H253.946C253.91 11.7 253.598 12.33 253.01 12.798C252.434 13.266 251.708 13.5 250.832 13.5ZM259.274 27V14.4H261.2L269.102 24.102H268.148V14.4H270.47V27H268.544L260.642 17.298H261.596V27H259.274ZM279.732 27.18C278.748 27.18 277.842 27.024 277.014 26.712C276.198 26.388 275.484 25.938 274.872 25.362C274.26 24.774 273.786 24.084 273.45 23.292C273.114 22.5 272.946 21.636 272.946 20.7C272.946 19.764 273.114 18.9 273.45 18.108C273.786 17.316 274.26 16.632 274.872 16.056C275.496 15.468 276.222 15.018 277.05 14.706C277.878 14.382 278.784 14.22 279.768 14.22C280.836 14.22 281.796 14.394 282.648 14.742C283.512 15.09 284.238 15.6 284.826 16.272L283.35 17.712C282.858 17.22 282.324 16.86 281.748 16.632C281.184 16.392 280.56 16.272 279.876 16.272C279.216 16.272 278.604 16.38 278.04 16.596C277.476 16.812 276.99 17.118 276.582 17.514C276.174 17.91 275.856 18.378 275.628 18.918C275.412 19.458 275.304 20.052 275.304 20.7C275.304 21.336 275.412 21.924 275.628 22.464C275.856 23.004 276.174 23.478 276.582 23.886C276.99 24.282 277.47 24.588 278.022 24.804C278.574 25.02 279.186 25.128 279.858 25.128C280.482 25.128 281.082 25.032 281.658 24.84C282.246 24.636 282.804 24.3 283.332 23.832L284.664 25.578C284.004 26.106 283.236 26.508 282.36 26.784C281.496 27.048 280.62 27.18 279.732 27.18ZM282.45 25.272V20.556H284.664V25.578L282.45 25.272Z" fill="white"/>
</svg>
